# File created by Blade
# Date/Time:  Wed Jan 21 19:13:57 2015
# Frame Rate: 120.000 fps
#------------------------------------------------------
:FULLY-SPECIFIED
:DEGREES
724
root 2.894036 34.168793 5.698348 50.560886 51.548681 -33.359763
RightUpLeg -76.258046 -2.319667 2.094973
RightLeg 13.680057 -0.000000 -0.000000
RightFoot 5.452477 5.106252 36.169388
RightToeBase 14.980477 -0.000000 -0.000000
LeftUpLeg -57.531869 23.978537 2.959994
LeftLeg 5.730518 -0.000000 -0.000000
LeftFoot 3.887401 8.373556 4.146907
LeftToeBase -19.428102 -0.000000 0.000000
Spine -42.500154 -5.140757 3.906113
RightShoulder -21.240663 5.041388 -27.997703
RightArm -7.908095 -21.238285 67.628572
RightForeArm -1.527717 -0.000000 37.387317
RightHand 12.066877 0.000000 0.279704
RightHandThumb1 -24.326973 -0.000000 -32.862282
LeftShoulder -6.891882 6.258827 33.253306
LeftArm 25.589203 12.723710 -76.670418
LeftForeArm 29.053012 -0.000000 44.315942
LeftHand -31.730727 0.000000 20.774218
LeftHandThumb1 -26.253704 0.000000 33.147579
Head 8.527333 13.984517 35.297331
725
root 2.936811 34.051565 5.856553 51.395842 51.338383 -32.351614
RightUpLeg -78.361481 -0.797083 3.568138
RightLeg 11.942604 -0.000000 -0.000000
RightFoot 6.007609 3.325099 36.567581
RightToeBase 14.170346 -0.000000 -0.000000
LeftUpLeg -57.279003 23.595383 2.830716
LeftLeg 6.126858 -0.000000 -0.000000
LeftFoot 3.265332 8.642536 3.785238
LeftToeBase -19.458309 -0.000000 0.000000
Spine -42.051872 -5.904431 4.328270
RightShoulder -20.677428 4.868279 -28.246148
RightArm -7.612643 -21.460543 67.458207
RightForeArm -0.493281 0.000000 38.252353
RightHand 12.159237 -0.000000 0.052467
RightHandThumb1 -24.326973 -0.000000 -32.862282
LeftShoulder -6.944875 5.870633 32.607829
LeftArm 26.247156 12.039744 -76.627558
LeftForeArm 29.485180 -0.000000 44.743207
LeftHand -31.485309 -0.000000 20.551065
LeftHandThumb1 -26.253704 0.000000 33.147579
Head 8.852446 15.174506 33.937151
726
root 2.996333 33.919185 6.022677 52.163447 51.372543 -31.282173
RightUpLeg -80.176812 0.554913 5.006894
RightLeg 10.137701 -0.000000 -0.000000
RightFoot 6.931152 1.395924 37.208576
RightToeBase 13.966727 -0.000000 -0.000000
LeftUpLeg -57.031313 23.219952 2.486285
LeftLeg 6.413545 -0.000000 -0.000000
LeftFoot 2.496563 8.868403 3.273112
LeftToeBase -18.902567 -0.000000 0.000000
Spine -41.540504 -6.740400 4.861619
RightShoulder -20.095894 4.662688 -28.489181
RightArm -7.364326 -21.540421 67.300816
RightForeArm 0.189381 0.000000 38.913369
RightHand 12.218572 -0.000000 -0.177126
RightHandThumb1 -24.326973 -0.000000 -32.862282
LeftShoulder -6.858417 5.432166 31.967574
LeftArm 26.838543 11.355189 -76.760016
LeftForeArm 29.979595 -0.000000 45.290230
LeftHand -31.204778 -0.000000 20.386169
LeftHandThumb1 -26.253704 0.000000 33.147579
Head 9.069230 16.172291 32.498294
727
root 3.070570 33.772608 6.180891 53.006806 51.721480 -30.065596
RightUpLeg -81.891380 1.622502 6.341629
RightLeg 8.467827 -0.000000 -0.000000
RightFoot 8.425469 -0.639827 37.708090
RightToeBase 13.433894 -0.000000 -0.000000
LeftUpLeg -56.918424 22.736596 1.970744
LeftLeg 6.744032 -0.000000 -0.000000
LeftFoot 1.855514 8.790667 2.833068
LeftToeBase -19.071635 -0.000000 0.000000
Spine -40.987580 -7.675963 5.562666
RightShoulder -19.639438 4.497555 -28.783636
RightArm -7.056539 -21.562702 67.129339
RightForeArm 0.466236 -0.000000 39.320170
RightHand 12.285093 -0.000000 -0.344818
RightHandThumb1 -24.326973 -0.000000 -32.862282
LeftShoulder -6.753037 5.087741 31.304186
LeftArm 27.629780 10.707769 -77.064267
LeftForeArm 30.408696 -0.000000 45.864157
LeftHand -30.834796 0.000000 20.142078
LeftHandThumb1 -26.253704 0.000000 33.147579
Head 9.078791 17.086610 30.952918
728
root 3.154756 33.611942 6.345539 53.823281 52.285346 -28.762616
RightUpLeg -83.428789 2.534046 7.218722
RightLeg 6.829416 -0.000000 -0.000000
RightFoot 10.065639 -2.978093 38.542004
RightToeBase 13.499063 -0.000000 -0.000000
LeftUpLeg -56.859813 22.376327 1.188909
LeftLeg 7.051098 -0.000000 -0.000000
LeftFoot 1.141373 8.408217 2.448408
LeftToeBase -19.175719 -0.000000 0.000000
Spine -40.334711 -8.684063 6.344983
RightShoulder -19.280066 4.478197 -29.128815
RightArm -6.817655 -21.611502 67.035838
RightForeArm 0.490126 -0.000000 39.405626
RightHand 12.331378 -0.000000 -0.560415
RightHandThumb1 -24.326973 -0.000000 -32.862282
LeftShoulder -6.639881 4.665721 30.728459
LeftArm 28.382067 10.187532 -77.583244
LeftForeArm 30.940899 -0.000000 46.453493
LeftHand -30.512070 -0.000000 20.206474
LeftHandThumb1 -26.253704 0.000000 33.147579
Head 8.865701 17.941829 29.385862
